<?xml version="1.0" standalone="no"?>
<!DOCTYPE svg PUBLIC "-//W3C//DTD SVG 20010904//EN"
 "http://www.w3.org/TR/2001/REC-SVG-20010904/DTD/svg10.dtd">
<svg version="1.0" xmlns="http://www.w3.org/2000/svg"
 width="248.000000pt" height="488.000000pt" viewBox="0 0 248.000000 488.000000"
 preserveAspectRatio="xMidYMid meet">
<metadata>
Created by potrace 1.15, written by Peter Selinger 2001-2017
</metadata>
<g transform="translate(0.000000,488.000000) scale(0.100000,-0.100000)"
fill="#000000" stroke="none">
<path d="M17 4863 c-4 -3 -7 -1091 -7 -2418 0 -1862 3 -2414 12 -2423 9 -9
296 -12 1230 -12 l1218 0 0 2430 0 2430 -1223 0 c-673 0 -1227 -3 -1230 -7z
m2401 -45 c17 -17 17 -4739 0 -4756 -17 -17 -2339 -17 -2356 0 -17 17 -17
4739 0 4756 17 17 2339 17 2356 0z"/>
<path d="M1205 4230 c-11 -4 -165 -154 -342 -332 -318 -318 -323 -324 -323
-364 0 -52 23 -74 76 -74 38 0 48 8 332 293 l293 293 198 -200 c108 -111 235
-240 282 -289 68 -70 91 -89 121 -93 30 -5 41 -2 62 19 17 17 26 37 26 57 0
28 -30 63 -239 278 -421 435 -425 438 -486 412z"/>
<path d="M1165 2591 c-103 -27 -176 -112 -191 -219 -14 -106 34 -207 123 -259
42 -25 58 -28 133 -28 95 0 135 14 190 68 50 48 70 100 70 185 0 40 -6 87 -14
106 -20 48 -71 102 -119 125 -48 23 -146 34 -192 22z m111 -157 c83 -40 84
-148 1 -190 -92 -48 -188 65 -130 154 13 21 63 51 86 52 5 0 24 -7 43 -16z"/>
<path d="M821 1054 c-44 -56 -39 -62 237 -346 134 -137 161 -153 210 -123 15
10 109 100 210 201 174 174 182 184 182 222 0 49 -24 72 -76 72 -37 0 -47 -8
-196 -157 l-158 -158 -158 158 c-146 146 -160 157 -194 157 -28 0 -42 -6 -57
-26z"/>
</g>
</svg>
